<svg xmlns="http://www.w3.org/2000/svg" viewBox="83.3 243.7 445.5 262.1"><path d="M229.8 381.5l15 46.9 49.1-.3-39.9 28.6 15.4 46.7-39.6-29.1-39.6 29.1 15.6-46.7-40.1-28.6 49.3.3 14.8-46.9zm146.4 0l14.9 46.9 49.2-.3-39.9 28.6 15.5 46.7-39.7-29.1-39.6 29.1 15.5-46.7-40-28.6 49.3.3 14.8-46.9zM150.1 246.7l15 46.8 49.1-.3-39.9 28.7 15.4 46.7-39.6-29.2-39.5 29.2 15.5-46.7-40-28.7 49.2.3 14.8-46.8zm155.9 0l14.8 46.8 49.3-.3-39.9 28.7 15.4 46.7-39.6-29.2-39.6 29.2 15.4-46.7-39.9-28.7 49.3.3 14.8-46.8zm155.9 0l14.8 46.8 49.2-.3-40 28.7 15.5 46.7-39.5-29.2-39.6 29.2 15.4-46.7-39.9-28.7 49.1.3 15-46.8z" fill="#d90073" stroke="#d90073" stroke-width="1.807" stroke-miterlimit="10"/></svg>