<svg xmlns="http://www.w3.org/2000/svg" viewBox="300.4 103.4 359.4 347.1"><g fill="#333e48"><path d="M308.6 450.5c-1.3 0-2.7-.3-3.8-1-2.7-1.4-4.5-4.2-4.5-7.3V298.8c0-2.7 1.3-5.2 3.5-6.7l171.4-120c2.5-1.8 5.7-2 8.5-.6 2.7 1.4 4.5 4.2 4.5 7.3v143.6c0 2.7-1.3 5.2-3.5 6.7L313.4 449c-1.5 1-3.1 1.5-4.8 1.5m8.3-147.5v123.5l155-108.5V194.6L316.9 303"/><path d="M651.4 375.3c-1.7 0-3.2-.4-4.8-1.5L477.2 255.1c-3.8-2.7-4.6-7.7-2-11.5 2.7-3.8 7.7-4.6 11.5-2l169.5 118.7c3.8 2.7 4.6 7.7 2 11.5-1.7 2.3-4.2 3.5-6.8 3.5"/><path d="M633 347.3V173c0-2.7-1.3-5-3.4-6.6L546.9 105c-2.5-1.8-5.9-2.1-8.5-.7-2.8 1.4-4.5 4.2-4.5 7.3v49.3l16.4 12.2v-45.2l66.2 49.3v155l-25.9-17.9v10.1l-57-39.9v5.7c0 2.7 1.3 5.2 3.5 6.7l82.9 58c1.4 1 3.1 1.5 4.8 1.5 4.5 0 8.3-3.6 8.3-8.3-.1-.2-.1-.5-.1-.8"/><path d="M656.1 290.8L624.7 269v20l18.5 12.9v123.5l-153-106.7V195.2l17.8 12.3v-20l-21.3-14.8c-2.5-1.8-5.7-2-8.5-.6-2.7 1.4-4.5 4.2-4.5 7.3V323c0 2.7 1.3 5.2 3.5 6.7l169.5 118c1.4 1 3.1 1.5 4.8 1.5 1.3 0 2.7-.3 3.8-1 2.7-1.4 4.5-4.2 4.5-7.3V297.5c-.2-2.7-1.6-5.2-3.7-6.7"/><path d="M590.6 332.5c-1.7 0-3.4-.6-4.8-1.5l-82.7-58c-2.2-1.5-3.5-4.1-3.5-6.7l.1-124.5c0-3.1 1.8-5.9 4.5-7.3 2.8-1.4 6.2-1.1 8.5.7l82.7 61.5c2.1 1.5 3.4 4.1 3.4 6.6v121.1c.1 4.5-3.6 8.1-8.2 8.1M516 261.9l66.4 46.6v-101l-66.2-49.3-.2 103.7"/></g><path fill="#d90073" d="M527.7 205.9c.6-1.7 2.2-2.2 3.6-1.3l.7.4c1.4-2.9 3.2-5.2 5.2-6.9 1-.7 2.2-1.1 3.6-.1 1.8 1.3 2.8 3.9 2 6.2-.3.7-.6 1.3-1.1 1.7-1.3 1.1-2.4 2.4-3.4 3.8l7.6 5c5-7.6 9.4-9.2 15-5.6 5.6 3.6 7.4 11.1 5.6 18.9l2.7 1.8c1.4 1 2.1 3.1 1.5 4.8-.6 1.7-2.2 2.2-3.6 1.3l-2.7-1.8c-1.8 3.9-4.5 7-7.4 9.2-1.1.8-2.2.8-3.6 0-2-1.3-2.8-4.1-2-6.3.3-.7.8-1.4 1.4-1.8 2.2-1.5 3.9-3.2 5.3-5.6l-7.8-5.3c-4.8 7.1-9 9.5-14.8 5.5-5.5-3.6-7.4-11.1-5.6-18.8l-.6-.4c-1.6-.9-2.3-3-1.6-4.7m25.7 13.8l6.9 4.6c.6-2.9 0-5.2-1.8-6.3-1.6-1.1-3-.9-5.1 1.7m-10.5-.3l-6.7-4.5c-.6 3.1.1 5 1.8 6.2 1.5.9 2.8.9 4.9-1.7"/></svg>